<svg xmlns="http://www.w3.org/2000/svg" viewBox="0 0 24 24" width="512" height="512">
  <rect width="24" height="24" rx="6" fill="#215B66"/>
  <g fill="none" stroke="#ffffff" stroke-width="1.6" stroke-linecap="round" stroke-linejoin="round">
    <path d="M15 19.5v-4a1 1 0 0 0-1-1h-4a1 1 0 0 0-1 1v4"/>
    <path d="M17.024 10.216a1.007 1.007 0 0 0-1.392 0 2.247 2.247 0 0 1-3.104 0 1.007 1.007 0 0 0-1.392 0 2.247 2.247 0 0 1-3.104 0 1.007 1.007 0 0 0-1.392 0 2.247 2.247 0 0 1-3.39-2.92l2.598-3.76A1.8 1.8 0 0 1 7.336 3h9.328a1.8 1.8 0 0 1 1.487.786l2.603 3.767a2.247 2.247 0 0 1-3.393 2.918"/>
    <path d="M4.6 9.8V17a1.8 1.8 0 0 0 1.8 1.8h10.8A1.8 1.8 0 0 0 19 17V9.8"/>
  </g>
</svg>
